<svg version="1.2" xmlns="http://www.w3.org/2000/svg" viewBox="0 0 1144 1408" width="1144" height="1408">
	<title>theboxtv1992</title>
	<style>
		tspan { white-space:pre } 
		.s0 { fill: #ffffff } 
		.s1 { fill: #000000 } 
		.t2 { font-size: 24px;fill: #000000;font-weight: 400;font-family: "ArialMT", "Arial" } 
	</style>
	<path id="Path 0" class="s0" d="m0.2 704.4l-0.2 703.6h1144v-1406c-883.1 0-1140.4-0.3-1141.6-0.6l-2.1-0.6z"/>
	<path id="Path 0" class="s1" d="m1041.9 268.4c-0.2 0.2-218.2 0.6-484.4 1-266.2 0.4-484.3 0.9-484.8 1.2-0.4 0.2-0.7 184.2-0.7 408.9v408.5c755.2 0 976 0.3 977.8 0.7l3.2 0.8v-821.5c-8.3 0-10.9 0.2-11.1 0.4z"/>
	<text id="®" style="transform: matrix(.842,0,0,.842,1043.228,1239.771)" >
		<tspan x="0" y="0" class="t2">®</tspan><tspan  y="0" class="t2">
</tspan>
	</text>
	<text id="®" style="transform: matrix(.842,0,0,.842,1054.228,1089.771)" >
		<tspan x="0" y="0" class="t2">®</tspan><tspan  y="0" class="t2">
</tspan>
	</text>
	<g id="Layer 3">
		<path id="Path 1" fill-rule="evenodd" class="s1" d="m949.8 1105c4 0 9.3 0.7 12 1.6 2.6 0.9 6.4 2.8 8.5 4.2 2.8 1.9 4.9 4.8 11.2 17.6l0.4 24c0.2 15.4-0.1 26.4-0.8 30.6-0.7 3.6-2.4 8.7-3.9 11.5-1.5 2.7-4.3 6-6.2 7.3-1.9 1.2-5.3 2.8-7.5 3.4-2.2 0.6-8 1.1-13 1.1-5.6 0-10.9-0.6-14-1.6-2.7-0.9-6.5-3.1-8.4-4.9-1.9-1.8-4.2-5.1-5.2-7.3-1-2.2-2.4-8-3-13-0.7-5.7-0.9-16-0.6-28 0.5-15.6 1-20.3 2.8-26 1.2-3.8 3.1-8.3 4.3-9.9 1.1-1.6 3.7-4.1 5.6-5.5 1.9-1.4 5-3.1 7-3.8 1.9-0.7 6.8-1.2 10.8-1.3zm-672.5 1.5c4.2 0.3 9.4 1.2 11.5 2.1 2 0.8 4.9 2.4 6.5 3.5 1.5 1 3.7 3.8 4.9 6.1 1.1 2.4 2.4 7.2 2.8 10.8 0.4 3.6 0.3 6.7-0.1 7-0.4 0.3-3.9 0.4-7.8 0.2-3.9-0.1-7.5-0.4-8.1-0.7-0.5-0.3-1-1.8-1-3.5 0-1.7-0.7-4.6-1.5-6.5-0.8-1.9-2.4-4-3.5-4.5-1.1-0.5-3.5-1-5.2-1-1.8 0-4.3 0.7-5.5 1.5-1.3 0.8-2.7 3.1-3.3 5-0.8 2.8-0.6 4.3 0.8 7.2 1.3 3 4.2 5.5 12.9 11.3 6.2 4.1 13.5 9.7 16.3 12.5 2.8 2.7 5.9 6.8 7 9 1.5 3 2 6.1 2 12 0 5.6-0.6 9.2-1.9 12-1 2.2-3.3 5.5-5.2 7.4-1.9 1.9-5.4 4.3-7.9 5.4-3.2 1.4-6.8 1.9-12.5 1.9-4.4 0.1-10-0.5-12.5-1.1-2.5-0.7-6.2-2.3-8.2-3.7-2.4-1.5-4.8-4.4-6.5-7.7-2.2-4.2-2.7-6.8-3.3-22.7h18v6.2c0 4.5 0.6 7.2 2 9.5 1.1 1.8 3.4 4 5 4.8 1.7 0.8 4.2 1.5 5.6 1.5 1.6 0 3.7-1.2 5.7-3.3 2.8-3 3-3.6 2.6-8.7-0.3-3.3-1.3-6.7-2.5-8.5-1.2-1.7-6.8-6.2-12.5-10.1-5.7-4-12.5-9.5-15.1-12.3-2.7-2.8-5.5-6.8-6.4-8.9-0.9-2-1.7-6.6-1.8-10.2 0-4.5 0.6-7.9 2-11 1.1-2.5 3.8-5.8 5.9-7.5 2.1-1.7 5.9-3.6 8.5-4.2 2.7-0.8 7.6-1.1 12.3-0.8zm107.7-0.2c5.6 0.2 9.7 0.9 12 2.1 1.9 1 5 3.2 6.8 5 1.8 1.7 3.9 5.1 4.7 7.6 0.8 2.5 1.6 7 2 15.5l-7.7 0.2c-6.6 0.3-7.9 0-8.7-1.5-0.4-0.9-1.1-3.7-1.4-6.2-0.4-2.7-1.6-5.4-2.9-6.8-1.3-1.3-3.5-2.2-5-2.2-1.6 0-4.1 0.7-5.8 1.5-1.6 0.8-3.7 2.8-4.5 4.5-1.2 2.4-1.5 7.7-1.5 27.2 0 13.4 0.5 26.1 1 28.3 0.5 2.4 2.1 5.1 3.9 6.7 1.7 1.6 4.2 2.8 5.6 2.8 1.4 0 3.4-0.5 4.5-1 1.1-0.5 2.7-2.5 3.6-4.3 0.9-1.7 1.9-6.2 2.9-16.7h16.5v6c0 3.3-0.8 9-1.7 12.7-1.3 5.4-2.5 7.6-5.7 10.8-2.5 2.5-5.8 4.6-8.6 5.4-2.8 0.8-8.1 1.2-14 0.9-8.1-0.3-10.2-0.7-14.2-3.1-3-1.7-5.7-4.3-7.3-7-1.3-2.3-3.1-7.4-4-11.2-1-4.9-1.5-12.9-1.5-26.5 0-10.7 0.5-22.2 1-25.5 0.6-3.3 2.1-8.5 3.5-11.5 1.4-3 3.7-6.6 5.1-8 1.5-1.4 4.9-3.3 7.8-4.3 3.8-1.3 7.3-1.7 13.6-1.4zm457.8 0.2c3.9 0.3 8.9 1.2 11 2.1 2 0.8 4.9 2.4 6.5 3.5 1.5 1 3.8 4 5.1 6.6 1.3 2.7 2.7 7.5 3.1 10.8 0.7 5.7 0.6 6-1.7 6.6-1.2 0.4-4.9 0.6-8.1 0.5-3.9-0.1-6.1-0.6-6.7-1.6-0.5-0.8-1-2.8-1-4.5 0-1.7-0.9-4.5-2-6.3-1.2-1.9-3.1-3.5-4.7-3.8-1.6-0.4-4.3-0.4-6 0-1.8 0.3-4 1.6-4.8 2.8-0.8 1.3-1.5 4.1-1.5 6.3 0 2.2 0.7 5 1.5 6.2 0.8 1.3 6.6 5.6 12.8 9.7 6.4 4.2 13.7 10 17 13.5 3.9 4.1 6.1 7.5 6.8 10.3 0.6 2.4 0.9 7.7 0.7 11.8-0.3 4.2-1.2 8.9-2.1 10.7-0.9 1.8-3.4 4.9-5.4 6.9-2.7 2.4-5.9 4.2-10.8 5.6-5.3 1.6-8.4 1.9-12.7 1.4-3.2-0.3-7.9-1.1-10.5-1.8-3.4-0.8-6.1-2.5-9-5.5-3-2.9-4.8-6-5.8-9.6-0.9-3-1.4-8-1-18.2l17.5-0.5v6c0 3.9 0.7 7.3 1.9 9.7 1 2.1 3 4.4 4.5 5 1.4 0.7 4 1.3 5.7 1.3 2.1 0 4-1 6.2-3.3 2.8-3 3-3.6 2.6-8.7-0.3-3.1-1.4-6.8-2.5-8.4-1-1.6-6.4-5.9-11.9-9.6-5.5-3.7-12.1-9-14.7-11.9-2.7-2.8-5.8-7.2-7-9.9-1.5-3.2-2.2-6.6-2.2-10.7 0-4.5 0.6-7.3 2.5-11 1.5-2.9 4.2-6.2 6.5-7.8 2.1-1.5 5.9-3.1 8.4-3.7 2.5-0.5 7.8-0.7 11.8-0.5zm-768.8 1.5h28.5l1.2 5.2c0.7 2.9 3.2 14.8 5.7 26.3 2.5 11.5 4.8 23.9 5.2 27.5 0.6 5 0.9 5.9 1.5 4 0.4-1.4 0.7-4.2 0.8-6.3 0.1-2 2.4-14.4 5.1-27.5 2.8-13 5.3-24.9 6-29.2h27.5l0.6 17.2c0.3 9.5 0.4 28.3 0.3 41.8-0.1 13.5-0.2 27.3-0.4 37h-17l0.3-41.4c0.1-22.8 0.1-41.4 0-41.3-0.2 0.1-3.4 13.9-7.2 30.7-3.8 16.8-7.6 34.3-8.5 39-0.9 4.7-2.1 9.5-2.6 10.7-0.9 2-1.8 2.3-11 2.3l-1.4-6.8c-0.8-3.7-3.1-13.9-5-22.7-2-8.8-5.4-24.5-7.6-35-2.3-10.5-4.3-19.2-4.5-19.5-0.2-0.3-0.1 18.5 1 84.1l-18-0.6zm99.9 0h17.1l0.1 2.7c0.1 1.6 0.2 18.3 0.4 37.3 0.2 29.7 0.4 34.9 1.9 37.8 0.9 1.9 3 3.8 5.1 4.7 1.9 0.8 4.6 1.5 6 1.5 1.4 0 3.9-0.7 5.5-1.5 1.7-0.8 3.6-2.5 4.3-3.7 0.9-1.7 1.4-12.6 2.2-78.3l17.5-0.5-0.2 40.8c-0.3 39.3-0.4 40.8-2.4 44.7-1.2 2.2-3.6 5.4-5.5 7.1-2.1 1.9-5.4 3.5-8.9 4.3-3.3 0.8-9.5 1.2-15.5 0.9-8.6-0.3-10.8-0.7-16-3.3-5-2.5-6.4-3.8-11-12.9zm147.1 0h18l0.1 94.5-3.3 0.7c-1.8 0.4-5.2 0.8-7.5 0.8-2.4 0-5-0.3-5.8-0.5-1.3-0.5-1.5-6.7-1.5-48zm130 0h59l-0.5 13.5-20 1-0.5 81.5h-18v-82h-20zm69 0h50v14h-32v11.5c0 10.2 0.2 11.5 1.8 11.5 0.9 0.1 7.3 0.2 26.7 0.5v14l-28.5 0.5 0.5 29.5 31.5 0.5v14h-50zm64 0h18l0.5 81.5 32.5 0.5v14l-50.5-0.5zm62 0h51v14l-32.5 0.5v22.7l29 0.3 0.5 14.5h-29l-0.5 3.2c-0.3 1.8-0.4 8.4 0 26.3l32 1v13h-50zm67.9 0c8.5 0 9.2 0.1 10.1 2.2 0.5 1.2 1.9 7.7 3 14.3 1.2 6.6 3.9 22.3 6.1 35 2.2 12.6 4 24.6 4 26.7-0.1 2.1 0.3 3.9 0.7 4.2 0.4 0.2 1.1-2.8 1.5-6.8 0.5-3.9 3.2-22.4 11.4-75.1l8.9-0.3c4.9-0.1 9.2 0.1 9.6 0.5 0.4 0.4-0.4 5.7-1.7 11.8-1.3 6-5.8 26.9-10 46.5-4.2 19.5-7.8 35.8-8 36.2-0.3 0.4-5.4 0.8-11.5 0.8-6 0-11.1-0.4-11.4-0.8-0.2-0.4-3.1-12.7-6.4-27.2-3.3-14.6-7.8-34.9-10.1-45-2.3-10.2-4.4-19.6-4.7-20.8-0.7-2.2-0.5-2.2 8.5-2.2zm67.1 0h18.1l-0.6 95.5h-17zm123.1 0l-0.5 95.5-17.5 0.5-0.2-47.4c-0.1-26 0.2-47.6 0.7-48 0.4-0.3 4.5-0.6 17.5-0.6zm103.2 0c4.5 0 8.7 0.3 9.3 0.7 0.6 0.4 4.5 9.8 8.7 20.8 4.2 11 8.5 22.9 9.6 26.5 1.1 3.5 3.2 10.5 4.7 15.5 1.4 4.9 2.7 8.7 2.9 8.5 0.2-0.3-0.2-9.1-1-19.5-0.8-10.5-1.4-26.6-1.4-52.5h8.5c8 0 8.5 0.1 9 2.2 0.3 1.2 0.4 22.7 0 93.3l-8.5 0.2c-4.7 0.2-8.9-0.1-9.3-0.5-0.4-0.4-2.5-5-4.6-10.2-2.1-5.3-6.1-15.6-8.9-23-2.8-7.5-6.7-18.5-12.2-35.5l0.5 8c0.3 4.4 0.8 20 2 61.5l-18-0.5-0.3-46.5c-0.1-25.6 0-47.1 0.2-47.8 0.4-0.9 3.1-1.2 8.8-1.2zm-811.7 113c5.4 0 10.1 0.6 14.5 1.9 3.5 1.1 8.9 3.7 12 5.9 3 2.1 6.7 5.4 8.1 7.3 1.5 1.8 4 6.3 5.7 9.9 1.7 3.5 3.6 9.6 4.3 13.5 0.6 4 0.9 10.4 0.5 15-0.3 4.4-1.5 10.9-2.5 14.5-1 3.5-2.9 8.6-4.2 11.3-1.4 2.6-4.3 6.9-6.5 9.5-2.2 2.6-6.1 5.9-8.5 7.3-2.4 1.5-7.4 3.5-10.9 4.4-4.6 1.2-9 1.6-15 1.3-6.8-0.4-9.9-1.1-15-3.5-3.7-1.7-8.5-5-11-7.6-2.5-2.4-6-7.1-7.7-10.4-1.7-3.2-3.9-8.8-4.8-12.3-1.1-4.2-1.7-10.6-1.7-17.5 0-7.2 0.6-13.3 1.7-17.5 0.9-3.6 2.8-8.8 4.2-11.5 1.4-2.8 4.9-7.3 7.7-10.1 2.8-2.8 7.3-6.1 10.1-7.4 2.7-1.3 6.3-2.7 8-3.1 1.6-0.4 6.6-0.8 11-0.9zm-95 0.9l4.7 14.5c2.6 8 5.1 14.6 5.5 14.6 0.4 0 3.1-6.5 11-28.5l15.4-0.3c8.5-0.2 15.6-0.1 15.7 0.2 0.1 0.3-3.5 8.5-7.9 18.3-4.5 9.8-10.4 22.5-18 38.8l0.1 41.5h-31v-43l-14-27.3c-7.7-15-14-27.6-14-28 0-0.4 7.3-0.8 32.5-0.8zm422 0.1c4.4 0 10.2 0.6 13 1.4 2.7 0.8 6.7 3 8.9 4.8 2.1 1.8 4.7 5.1 5.8 7.3 1.1 2.2 2.6 6 3.3 8.5 0.7 2.4 1.6 11.9 2 21 0.3 9 0.1 21.6-0.4 28-0.9 9.8-1.5 12.4-4.3 18-3 5.8-3.9 6.8-9.3 9.5-5.7 2.8-6.8 3-17.5 3-10.5 0-12-0.3-17.3-2.8-3.8-1.8-6.5-4-8.2-6.5-1.4-2.1-3.2-6.7-4.2-10.2-1.4-5.3-1.7-10.7-1.7-28.5 0-17.5 0.4-23.7 1.8-30 1-4.4 2.6-9.4 3.6-11 1-1.7 3.1-4.3 4.6-5.7 1.6-1.5 4.9-3.6 7.4-4.8 3.3-1.5 6.6-2 12.5-2zm401.5 0c3.5 0 8.7 0.6 11.5 1.3 2.7 0.7 6.5 2.2 8.5 3.4 1.9 1.1 4.7 3.8 6.2 5.9 1.5 2.1 3.7 6.7 4.8 10.1 1.7 5.6 2 9 2 32 0 21.4-0.3 26.6-1.7 30.8-0.9 2.7-2.9 6.8-4.3 9-1.7 2.4-4.6 4.9-7.6 6.4-4 2-6.8 2.6-14.9 2.9-7.3 0.3-11.6 0-15.8-1.2-4.2-1.2-6.9-2.8-10-5.9-3.2-3.1-4.8-5.9-6.1-10.2-1.3-4.3-2-10.9-2.3-23-0.3-9.5-0.1-21.7 0.5-27.5 0.6-5.8 1.8-12.9 2.6-15.8 1.1-3.7 2.9-6.6 6.3-10.1 2.8-2.8 6.6-5.4 9.3-6.4 2.4-0.9 7.4-1.6 11-1.7zm-499.5 1.1c3.3-0.1 8.3 0.5 11.2 1.3 2.9 0.9 6.7 2.8 8.4 4.3 1.7 1.5 4 4.4 5 6.5 1 2.1 2.3 6.8 2.8 10.5 0.6 3.7 1 7.1 1 7.5 0.1 0.4-3.9 0.9-17.7 1.3l-0.7-6c-0.6-4.8-1.3-6.6-3.6-8.8-1.6-1.5-4-2.7-5.2-2.7-1.2 0-3.7 0.9-5.5 2-2 1.2-3.7 3.4-4.5 5.7-0.8 2.6-1.2 11-1.2 26.8 0 12.6 0.3 24.6 0.7 26.7 0.4 2.1 1.9 5.1 3.3 6.8 1.9 2.3 3.3 3 6.2 3 2.6 0 4.4-0.7 6-2.3 1.2-1.2 2.7-3.8 3.2-5.7 0.6-2 1.1-5.9 1.1-14l18.5-0.1-0.7 7.8c-0.4 4.3-1.4 10-2.3 12.8-1 2.7-2.8 6.4-4.1 8.2-1.4 1.8-4.4 4.3-6.7 5.5-3.7 2-5.7 2.3-15.2 2.2-9.5 0-11.7-0.3-15.3-2.2-2.3-1.2-5.4-3.5-6.8-5-1.4-1.5-3.4-5.7-4.6-9.2-1.6-5.2-2.1-10.2-2.6-24.5-0.3-11.2-0.1-22 0.7-28.5 0.8-6.7 2-12.4 3.5-15.5 1.3-2.8 3.8-6.5 5.7-8.3 1.8-1.9 4.7-3.7 6.4-4.2 1.6-0.5 3.9-1.1 5-1.4 1.1-0.2 4.7-0.5 8-0.5zm-170.6 1.9h31.1v71l2.5 2.5c1.7 1.7 3.6 2.5 6.2 2.5 2.6 0 4.4-0.6 5.8-2.1 1.9-2.1 2-3.7 2.4-73.9h31.1v34.2c0 20.8-0.5 36.6-1.1 40.3-0.6 3.3-2 7.8-3.1 10-1.2 2.2-3.2 5.2-4.7 6.8-1.4 1.6-4.7 3.9-7.1 5.2-2.5 1.2-8.4 3-13 4-6 1.2-10.6 1.5-15.5 1.1-3.9-0.4-9.7-1.5-13-2.6-3.9-1.2-7.8-3.5-11-6.3-3.1-2.7-6-6.5-10-15.2zm344.1 0l9.2-0.1c9.2 0 9.3 0 10.5 2.8 0.6 1.5 3.4 8.6 6.1 15.8 2.8 7.1 7 19 9.4 26.5 2.5 7.4 5.5 16.4 8.8 26.5l-0.5-10c-0.4-5.5-0.9-18.1-1.4-28-0.4-9.9-0.6-21.4-0.5-33h17.9v17.5c0 9.6-0.2 31.1-0.5 78h-18l-4-10.3c-2.1-5.6-6.3-16.5-9.4-24.2-3-7.7-6.7-18.5-8.3-24-2.4-8.5-2.9-9.5-3.2-6.5-0.1 1.9 0.2 10.7 0.8 19.5 0.6 8.8 1.1 22.6 1.1 45.5h-18zm98 0h59v14l-20.5 0.5-0.5 81.5h-19l0.5-81.5-10.3-0.3c-10-0.2-10.2-0.3-9.7-2.5 0.2-1.2 0.4-4.4 0.5-7zm118 0.2c17.4 0.4 22.2 0.8 25.5 2.2 2.2 0.9 5 2.7 6.3 3.9 1.3 1.2 3.3 4 4.4 6.2 1.5 3 2 5.9 2 11.5 0 6-0.5 8.7-2.6 13.3-1.7 3.6-3.7 6.3-5.6 7.5-1.7 0.9-3.1 1.9-3.1 2.2 0 0.3 1.2 1.1 2.8 1.8 1.5 0.6 3.6 2.7 4.7 4.5 1.5 2.5 2.2 6.8 3.2 20.7 0.9 12.1 1.8 18.2 4.4 22h-20.5l-1.2-17.7c-1.1-17.3-1.2-17.9-3.7-20-1.5-1.3-4.6-2.5-6.9-2.9-2.3-0.3-6.5-0.4-14.2 0.1l-0.5 40.5-8.6 0.3c-4.8 0.1-8.8 0-9.1-0.3-0.2-0.3-0.5-21.7-0.5-47.6-0.1-27.5 0.2-47.4 0.7-47.8 0.5-0.5 10.6-0.6 22.5-0.4zm186-0.3l18.5 0.6 0.5 82h31.5l0.5 14.5-50.5-0.5zm-54.7-102.5c-1.7 0.8-3.9 2.7-5 4.2-1.7 2.5-1.9 5.1-2.2 27.8-0.2 18.7 0 26.1 1 29 0.8 2.6 2.5 4.8 4.8 6.3 1.9 1.3 5 2.3 6.8 2.3 1.7 0 4.4-0.6 6-1.4 1.5-0.7 3.6-3.1 4.7-5.2 1.7-3.4 2-6.6 2.3-24.9 0.3-14.6 0-22.8-0.9-27-0.9-4.5-2.1-6.8-4.6-9.3-2.4-2.3-4.2-3.2-6.5-3.2-1.8 0-4.7 0.7-6.4 1.4zm-426.4 116.6c-1.4 0.5-3.6 2.9-5 5.2-2.5 4.3-2.5 4.4-2.5 29.3 0 21.9 0.2 25.4 1.8 28.2 0.9 1.8 2.9 4.2 4.5 5.3 1.5 1.2 4.2 2 6.2 2 1.9 0 5-0.9 6.8-2 2-1.3 3.7-3.4 4.5-5.8 0.8-2.5 1.2-11 1.2-26.7 0-19.3-0.3-23.7-1.7-27.5-0.9-2.5-2.5-5.3-3.5-6.3-1-1-3.6-2-5.8-2.2-2.2-0.3-5.1 0-6.5 0.5zm290 27c19-0.5 19.2-0.6 22.1-3.8 2.5-2.8 2.9-4 2.9-9.2 0-3.9-0.6-7.1-1.7-9-1-1.6-2.8-3.4-4-4-1.3-0.6-6.1-1-10.8-1h-8.5zm110.3-25.5c-1.3 0.8-3.1 2.9-4 4.7-1.6 2.9-1.8 6.4-1.8 28.8 0 22.4 0.2 25.9 1.8 28.7 0.9 1.8 3.1 4 4.7 4.8 1.7 0.8 4.6 1.5 6.5 1.5 1.9 0 4.9-0.9 6.5-2 1.7-1.2 3.5-3.6 4.3-5.8 0.8-2.5 1.2-10.8 1.2-25.7 0-16.7-0.4-23.2-1.5-26.9-0.8-2.7-2.5-6-3.7-7.3-1.8-1.8-3.4-2.3-7-2.3-2.7 0-5.8 0.6-7 1.5zm-727 6.8c-1.3 0.7-2.9 2.1-3.7 3.2-0.7 1.1-1.8 4.3-2.5 7.2-0.6 2.9-1.1 9.2-1.1 14 0 4.8 0.6 11.4 1.2 14.7 0.9 3.8 2.2 6.7 3.8 8.3 1.8 1.7 3.6 2.4 6.5 2.4 2.6 0 4.6-0.7 5.6-1.8 0.9-1 2.4-3.3 3.3-5.1 0.9-1.8 2.1-6.5 2.7-10.5 0.8-5.2 0.8-9.4 0-15-0.6-4.2-1.9-9.6-2.8-11.9-1.1-2.4-2.9-4.7-4.5-5.5-1.6-0.7-3.6-1.3-4.5-1.3-1 0-2.8 0.6-4 1.3z"/>
	</g>
	<path id="Path 1" fill-rule="evenodd" class="s0" d="m577.5 326.2c5.5-0.1 17.6 0.3 27 0.8 9.4 0.5 20.6 1.7 25 2.6 4.4 0.9 11.1 3.1 15 4.8 3.9 1.8 8.7 4.8 10.9 6.7 2.1 1.9 5.3 6.5 7.2 10.4 2.3 4.8 3.7 9.5 4.4 15 0.7 5.4 1 109.9 0.8 321.5-0.3 298.9-0.4 313.8-2.1 319.5-1 3.3-2.9 7.9-4.3 10.3-1.3 2.3-4.5 5.9-7.2 8-2.6 2.1-7.4 4.8-10.7 6.1-3.3 1.2-11 3-17 3.9-9.4 1.5-20.1 1.7-74.5 1.7-46.9 0-65.7-0.3-72-1.3-4.7-0.7-11.6-2.2-15.5-3.3-3.9-1.1-9.5-3.7-12.5-5.8-3.6-2.4-6.6-5.6-8.8-9.2-1.8-3-3.7-7-4.3-8.9-0.5-1.9-1.4-7.5-1.9-12.5-0.5-5.1-1-128.4-1-285-0.1-151.8-0.3-288.4-0.6-303.5-0.2-15.1 0-32 0.5-37.5 0.6-5.5 1.7-12.5 2.7-15.5 1.2-3.9 3.1-7 6.8-10.8 3.1-3.3 7.5-6.5 11.1-8.2 3.3-1.5 9.1-3.5 13-4.3 3.9-0.9 11.7-2.1 17.5-2.7 5.8-0.6 26.3-1.5 45.5-1.9 19.3-0.4 39.5-0.8 45-0.9zm432.5 0.8v53h-46v192l-16.7 22.3c-9.1 12.2-21.1 28.2-26.7 35.5-5.6 7.3-12.5 16.7-20.6 28.2l5.2 2.3c2.9 1.3 8.7 4.5 12.8 7.2 4.1 2.6 10.7 8 14.6 11.9 3.9 3.9 9.2 10.2 11.7 14.1 2.5 3.9 6.2 10.8 8.2 15.5 2.1 4.7 4.6 11.4 5.6 15 1 3.6 2.5 10.8 3.4 16 1.5 8.4 1.7 23.1 2 245l46 0.5 0.5 53.5-44.8-0.4c-24.6-0.2-58.3-0.4-105.2-0.6l0.5-52.5 36.5-0.5v-117.5c0-108.1-0.1-118-1.7-124.2-1-4-3.2-8.9-5.3-11.8-2.3-3.2-6.2-6.8-11.2-10-4.2-2.7-10.6-6.9-20.8-13.5l-9.8 13.3c-5.4 7.2-13.2 17.9-25.1 34.2l-0.1 141.3c0 93.1-0.3 141.3-1 141.4-0.5 0.2-25.7 0.2-111-0.2v-53h19.5c19.4 0 19.5 0 20-2.3 0.3-1.2 0.5-48.5 0.4-208.2l12.6-16.5c6.9-9.1 16.2-21.2 20.6-27 4.4-5.8 12.9-17 19-25 6-8 11-14.6 10.9-14.8 0-0.1-4.8-2.9-10.7-6.1-6-3.2-14.4-8.5-18.8-11.6-4.4-3.1-10.4-8-13.3-10.8-3-2.9-7.3-7.9-9.7-11.2-2.4-3.3-5.6-8.9-10-19l-1-252-39.5-0.5 0.5-51.5 141.5-0.5v52h-30v97.5c0 65.3 0.4 100.1 1.1 105.2 0.6 4.3 1.9 11.2 3 15.3 1 4.1 3.5 10.8 5.4 14.7 2.1 4.5 5.6 9.4 8.8 12.6 2.8 2.9 7.8 6.5 10.9 8 3.2 1.5 6.3 2.7 6.8 2.7 0.5 0 4-4.4 7.7-9.8 3.7-5.3 9.6-14 13.2-19.2 3.6-5.2 7.7-11.4 12.1-18l-0.1-130.4c-0.1-71.6 0.2-130.6 0.6-131 0.5-0.3 27.1-0.6 117.5-0.6zm-887 2h106.8c86 0 108 0.3 113.2 1.4 3.6 0.7 8.3 2.3 10.5 3.4 2.2 1.1 5.5 3.2 7.4 4.8 1.8 1.6 4.4 4.7 5.7 6.9 1.3 2.2 3.3 7.8 4.4 12.5 2.1 8.4 2.1 10 2.1 118.5 0 109.8 0 110-2.1 116.5-1.2 3.6-3.3 8.5-4.7 11-1.4 2.5-4.7 7.4-7.3 11-2.7 3.6-8.6 10.1-13.2 14.5-4.6 4.4-10.7 9.8-13.5 12-2.9 2.2-5 4.3-4.8 4.7 0.3 0.5 1.5 0.8 2.7 0.8 1.3 0 5.9 1.8 10.3 3.9 4.4 2.1 10.2 5.9 13 8.3 2.7 2.5 6.4 6.7 8.2 9.4 1.8 2.7 4.3 7.9 5.7 11.6 1.5 3.8 3.3 11 4.1 16 1.3 7.9 1.5 27.1 1.5 125.8 0 78.2-0.4 119.5-1.1 125.5-0.6 5-2.4 14.2-4 20.5-1.9 7.4-4.9 15.5-8.3 22.5-2.9 6-6.6 12.9-8.2 15.2-1.6 2.3-5.8 7.2-9.4 10.9-3.6 3.6-9.6 8.5-13.5 10.9-3.9 2.4-9 5.1-11.5 6-2.5 0.9-7.8 2.3-11.8 3.1-5.9 1.1-23.1 1.4-185.2 1.4l0.5-52.5 40.5-0.5-0.1-272.8c0-150-0.3-285.9-1.4-331.2h-36.5zm396.9 51.7l-4.6 0.4 0.7 603.4 72 0.5c0-588.8-0.1-604-1.7-604.3-1-0.2-15.3-0.4-31.8-0.4-16.5 0-32.1 0.1-34.6 0.4zm-287.8 131.8c-0.1 72.3 0.2 131.7 0.7 131.9 0.4 0.3 4.1 0.1 8.2-0.4 4.1-0.5 12.5-1.4 18.5-2.1 6.1-0.6 13.7-2 17-3 3.3-1 7.8-3.1 10-4.6 2.2-1.6 5.4-5.3 7.2-8.3 1.7-3 4.2-8.9 5.5-13l2.3-7.5 0.3-224.5h-69.6zm-1.3 328c-0.2 77.3-0.3 141.3-0.3 142.2 0 1.6 1.5 1.8 15.5 2.1 10.3 0.2 19-0.2 25.8-1.3 6.1-0.9 12.1-2.5 15-3.9 2.6-1.3 5.7-3.5 6.9-4.8 1.2-1.2 3.1-4.1 4.2-6.3 1.2-2.2 2.8-8.1 3.6-13 1.3-7.6 1.5-27.8 1.5-132.3v-123.2h-72z"/>
	<path id="Path 1" class="s1" d="m466 85h82l2 52h37l1-52h83l2 143-85 1-1-57h-37l-1 57h-84zm-225 1l33 1v35l-50 1v106h-84v-106h-46l-1-13v-23zm732 57l67 1-1 33h-66v20h72l1 33h-158v-142l94-1 64 1-1 34h-72z"/>
</svg>